<svg width="400" height="400" xmlns="http://www.w3.org/2000/svg">
 <!-- Created with Method Draw - http://github.com/duopixel/Method-Draw/ -->

 <g>
  <title>background</title>
  <rect fill="#fff" id="canvas_background" height="402" width="402" y="-1" x="-1"/>
  <g display="none" overflow="visible" y="0" x="0" height="100%" width="100%" id="canvasGrid">
   <rect fill="url(#gridpattern)" stroke-width="0" y="0" x="0" height="100%" width="100%"/>
  </g>
 </g>
 <g>
  <title>Layer 1</title>
  <!-- Created with Method Draw - http://github.com/duopixel/Method-Draw/ -->
  <g stroke="null" id="svg_15">
   <g stroke="null" transform="matrix(0.7529023228794496,0,0,0.7429520298455878,-1151.6703028030727,-1118.4503423274962) " id="svg_12">
    <title stroke="null" transform="translate(0,-0.00007701770664425567) translate(0.00010133312753168866,0) translate(0.00022293288202490658,0) translate(0,-3.364579916000366) translate(2.2737367544323206e-13,-22.024911880493164) translate(-4.720331192016602,-2.2737367544323206e-13) translate(-0.00013732908701058477,0) translate(0,0.00006866454350529239) translate(-812.999755859375,0) translate(3.000091314315796,0) translate(2409.999755859375,0) translate(0,1599.9998779296875) ">background</title>
    <rect stroke="null" x="1594.279947" y="1573.610378" width="402" height="402" id="svg_10" fill="#fff"/>
    <g stroke="null" id="svg_9" display="none">
     <rect stroke="null" id="svg_13" width="580" height="400" x="1595.279947" y="1574.610378" stroke-width="0" fill="url(#gridpattern)"/>
    </g>
   </g>
   <g stroke="null" transform="matrix(0.7529023228794496,0,0,0.7429520298455878,-1151.6703028030727,-1118.4503423274962) " id="svg_14">
    <title stroke="null" transform="translate(0,-0.00007701770664425567) translate(0.00010133312753168866,0) translate(0.00022293288202490658,0) translate(0,-3.364579916000366) translate(2.2737367544323206e-13,-22.024911880493164) translate(-4.720331192016602,-2.2737367544323206e-13) translate(-0.00013732908701058477,0) translate(0,0.00006866454350529239) translate(-812.999755859375,0) translate(3.000091314315796,0) translate(2409.999755859375,0) translate(0,1599.9998779296875) ">Layer 1</title>
    <g stroke="null" id="svg_7">
     <path stroke="null" d="m1965.304647,1798.893678l-144.8783,0l0,145.69973l-48.29277,0l0,-145.69973l-144.87831,0l0,-48.56657l144.87831,0l0,-145.69973l48.29277,0l0,145.69973l144.8783,0l0,48.56657z" fill="#77797A" id="svg_8"/>
    </g>
   </g>
  </g>
 </g>
</svg>