<?xml version="1.0" encoding="utf-8"?>
<!-- Generator: Adobe Illustrator 16.0.0, SVG Export Plug-In . SVG Version: 6.00 Build 0)  -->
<!DOCTYPE svg PUBLIC "-//W3C//DTD SVG 1.1//EN" "http://www.w3.org/Graphics/SVG/1.1/DTD/svg11.dtd">
<svg version="1.1" id="Layer_1" xmlns="http://www.w3.org/2000/svg" xmlns:xlink="http://www.w3.org/1999/xlink" x="0px" y="0px"
	 width="411.689px" height="446.559px" viewBox="0 0 411.689 446.559" enable-background="new 0 0 411.689 446.559"
	 xml:space="preserve">
<g>
	<g>
		<path fill="#5AC8FA" d="M355,265.217V0H0v429h261.935c15.581,11,34.772,17.559,55.53,17.559c52.113,0,94.225-42.503,94.225-94.614
			C411.689,313.277,388,279.792,355,265.217z M131,114h159v17H131V114z M131,169h159v19H131V169z M131,224h159v20H131V224z M103,302
			H66v-20h37V302z M103,244H66v-20h37V244z M103,188H66v-19h37V188z M103,131H66v-17h37V131z M131,282h124.624
			c-6.407,6-12.054,12-16.772,20H131V282z M355.276,417.221c-11.139,6.406-24.042,10.088-37.812,10.088
			c-41.95,0-75.957-34.006-75.957-75.955c0-20.06,7.787-38.289,20.488-51.866c7.801-8.338,17.455-14.911,28.312-19.071
			c8.437-3.232,17.586-5.021,27.157-5.021c13.77,0,26.673,3.684,37.812,10.092c22.788,13.11,38.146,37.687,38.146,65.866
			C393.422,379.53,378.064,404.107,355.276,417.221z"/>
	</g>
	<polygon fill="#5AC8FA" points="365,343 328,343 328,305 310,305 310,343 271,343 271,361 310,361 310,398 328,398 328,361 
		365,361 	"/>
</g>
</svg>
