<?xml version="1.0" encoding="utf-8"?>
<!-- Generator: Adobe Illustrator 19.0.0, SVG Export Plug-In . SVG Version: 6.00 Build 0)  -->
<svg version="1.1" id="Layer_1" xmlns="http://www.w3.org/2000/svg" xmlns:xlink="http://www.w3.org/1999/xlink" x="0px" y="0px"
	 viewBox="0 0 1100.9 76.6" style="enable-background:new 0 0 1100.9 76.6;" xml:space="preserve">
<g id="XMLID_2_">
	<path id="XMLID_3_" d="M7.8,75.1H0V1.8h8.2L33,60.5h0.3L58,1.8h8.3v73.3h-7.8V20.5H58l-21,49h-7.7l-21.1-49H7.8V75.1z"/>
	<path id="XMLID_5_" d="M95,1.8v47.9c0,5.8,1.7,10.5,5.1,14c3.4,3.5,8,5.2,13.8,5.2s10.4-1.7,13.8-5.2c3.4-3.5,5.1-8.2,5.1-14V1.8
		h8.5v47.9c0,8.1-2.5,14.6-7.6,19.6c-5.1,5-11.7,7.4-19.9,7.4c-8.2,0-14.8-2.5-19.9-7.5c-5.1-5-7.6-11.6-7.6-19.7V1.8H95z"/>
	<path id="XMLID_7_" d="M155.8,55.5h8.6c0.4,3.9,2.2,7.1,5.4,9.6c3.2,2.5,7.6,3.8,13.1,3.8c5.3,0,9.5-1.2,12.6-3.6
		c3.1-2.4,4.7-5.6,4.7-9.7c0-3.1-1-5.6-2.9-7.5c-2-1.9-5-3.4-9.2-4.5L174.9,40c-2.3-0.6-4.3-1.4-6.3-2.4c-1.9-1-3.7-2.2-5.3-3.7
		c-1.6-1.5-2.9-3.3-3.9-5.6c-0.9-2.2-1.4-4.7-1.4-7.4c0-4.4,1.2-8.2,3.7-11.4c2.4-3.2,5.5-5.6,9.3-7.2c3.7-1.6,7.8-2.3,12.2-2.3
		c3.1,0,6.1,0.4,9,1.2c2.9,0.8,5.5,2.1,7.9,3.7c2.4,1.6,4.4,3.8,5.9,6.5c1.5,2.7,2.3,5.8,2.3,9.3h-8.6c-0.4-3.8-2-6.9-4.8-9.3
		c-2.9-2.4-6.8-3.6-11.9-3.6c-4.8,0-8.7,1.1-11.7,3.3c-3,2.2-4.5,5.3-4.5,9.2c0,5.7,3.5,9.4,10.4,11.2l12.9,3.5
		c6.2,1.6,10.9,4,14.1,7.1c3.2,3.1,4.9,7.3,4.9,12.8c0,3.5-0.7,6.7-2.1,9.5c-1.4,2.8-3.4,5.1-5.9,6.8c-2.5,1.8-5.4,3.1-8.6,4.1
		c-3.2,0.9-6.7,1.4-10.5,1.4c-3.1,0-5.9-0.3-8.5-0.9c-2.6-0.6-4.8-1.4-6.7-2.5c-1.8-1.1-3.5-2.3-4.9-3.6c-1.4-1.4-2.5-2.8-3.4-4.5
		c-0.8-1.6-1.5-3.2-1.9-4.8C156.1,58.8,155.8,57.1,155.8,55.5z"/>
	<path id="XMLID_9_" d="M231.5,33.3V44c0,8.3,1.8,14.5,5.4,18.6c3.6,4.1,8.5,6.2,14.9,6.2c5.7,0,10.1-1.5,13.2-4.4
		c3.2-3,4.7-6.6,4.7-10.9h8.5c0,2.1-0.3,4.2-1,6.3s-1.7,4.2-3.1,6.2c-1.4,2-3.1,3.9-5.2,5.5c-2,1.6-4.6,2.9-7.6,3.8
		c-3,1-6.4,1.5-10,1.5c-8.8,0-15.7-2.8-20.8-8.4c-5-5.6-7.6-13.6-7.6-24.1v-11c0-10.3,2.6-18.4,7.7-24.2c5.1-5.8,12.1-8.7,20.8-8.7
		c3.5,0,6.7,0.5,9.6,1.4c3,0.9,5.5,2.2,7.5,3.8c2.1,1.6,3.8,3.5,5.3,5.6c1.5,2.1,2.5,4.3,3.2,6.7c0.7,2.3,1,4.7,1,7h-8.5
		c0-4.4-1.6-8.3-4.9-11.7c-3.3-3.4-7.7-5.1-13.3-5.1c-6.1,0-10.9,2.2-14.6,6.5C233.3,18.9,231.5,25.1,231.5,33.3z"/>
	<path id="XMLID_11_" d="M303.3,1.8v47.9c0,5.8,1.7,10.5,5.1,14c3.4,3.5,8,5.2,13.8,5.2s10.4-1.7,13.8-5.2c3.4-3.5,5.1-8.2,5.1-14
		V1.8h8.5v47.9c0,8.1-2.5,14.6-7.6,19.6c-5.1,5-11.7,7.4-19.9,7.4c-8.2,0-14.8-2.5-19.9-7.5c-5.1-5-7.6-11.6-7.6-19.7V1.8H303.3z"/>
	<path id="XMLID_13_" d="M412.4,67.3v7.8h-42.8V1.8h8.5v65.5H412.4z"/>
	<path id="XMLID_15_" d="M429.9,75.1h-8.8l26.3-73.3h8.3l26.3,73.3h-9.2l-7.6-22.6h-27.7L429.9,75.1z M451.6,12.4h-0.3L440,45.5
		h22.9L451.6,12.4z"/>
	<path id="XMLID_18_" d="M521.5,1.8c3.9,0,7.4,0.6,10.4,1.8c3,1.2,5.5,2.8,7.3,4.8s3.2,4.3,4.1,6.9c0.9,2.5,1.4,5.3,1.4,8.2
		c0,2.9-0.4,5.5-1.2,7.9c-0.8,2.4-1.9,4.4-3.2,6c-1.4,1.6-2.8,2.9-4.3,4c-1.5,1.1-3.2,1.9-5,2.6l15,31.3h-9.8l-13.6-29.5H504v29.5
		h-8.5V1.8H521.5z M504,37.9h16c5.2,0,9.2-1.2,11.9-3.6c2.7-2.4,4-5.8,4-10.3c0-4.7-1.4-8.3-4.1-10.8c-2.7-2.5-6.5-3.7-11.4-3.7H504
		V37.9z"/>
	<path id="XMLID_21_" d="M582.3,55.5h8.6c0.4,3.9,2.2,7.1,5.4,9.6c3.2,2.5,7.6,3.8,13.1,3.8c5.3,0,9.5-1.2,12.6-3.6
		c3.1-2.4,4.7-5.6,4.7-9.7c0-3.1-1-5.6-2.9-7.5c-2-1.9-5-3.4-9.2-4.5L601.5,40c-2.3-0.6-4.3-1.4-6.3-2.4c-1.9-1-3.7-2.2-5.3-3.7
		c-1.6-1.5-2.9-3.3-3.9-5.6c-0.9-2.2-1.4-4.7-1.4-7.4c0-4.4,1.2-8.2,3.7-11.4c2.4-3.2,5.5-5.6,9.3-7.2c3.7-1.6,7.8-2.3,12.2-2.3
		c3.1,0,6.1,0.4,9,1.2c2.9,0.8,5.5,2.1,7.9,3.7c2.4,1.6,4.4,3.8,5.9,6.5c1.5,2.7,2.3,5.8,2.3,9.3h-8.6c-0.4-3.8-2-6.9-4.8-9.3
		c-2.9-2.4-6.8-3.6-11.9-3.6c-4.8,0-8.7,1.1-11.7,3.3c-3,2.2-4.5,5.3-4.5,9.2c0,5.7,3.5,9.4,10.4,11.2l12.9,3.5
		c6.2,1.6,10.9,4,14.1,7.1c3.2,3.1,4.9,7.3,4.9,12.8c0,3.5-0.7,6.7-2.1,9.5c-1.4,2.8-3.4,5.1-5.9,6.8c-2.5,1.8-5.4,3.1-8.6,4.1
		c-3.2,0.9-6.7,1.4-10.5,1.4c-3.1,0-5.9-0.3-8.5-0.9c-2.6-0.6-4.8-1.4-6.7-2.5c-1.8-1.1-3.5-2.3-4.9-3.6c-1.4-1.4-2.5-2.8-3.4-4.5
		c-0.8-1.6-1.5-3.2-1.9-4.8C582.7,58.8,582.4,57.1,582.3,55.5z"/>
	<path id="XMLID_23_" d="M675.6,75.1h-8.5V9.5h-22.5V1.8h53.5v7.7h-22.5V75.1z"/>
	<path id="XMLID_25_" d="M737.2,1.8c3.9,0,7.4,0.6,10.4,1.8c3,1.2,5.5,2.8,7.3,4.8s3.2,4.3,4.1,6.9c0.9,2.5,1.4,5.3,1.4,8.2
		c0,2.9-0.4,5.5-1.2,7.9c-0.8,2.4-1.9,4.4-3.2,6c-1.4,1.6-2.8,2.9-4.3,4c-1.5,1.1-3.2,1.9-5,2.6l15,31.3h-9.8l-13.6-29.5h-18.5v29.5
		h-8.5V1.8H737.2z M719.7,37.9h16c5.2,0,9.2-1.2,11.9-3.6c2.7-2.4,4-5.8,4-10.3c0-4.7-1.4-8.3-4.1-10.8c-2.7-2.5-6.5-3.7-11.4-3.7
		h-16.4V37.9z"/>
	<path id="XMLID_28_" d="M822.2,67.3v7.8h-43.5V1.8h43.5v7.8h-34.9v24.2h33v7.7h-33v25.8H822.2z"/>
	<path id="XMLID_30_" d="M848.9,75.1h-8.5V1.8h8.5l37.5,58.7h0.4V1.8h8.5v73.3h-8.5l-37.5-58.7h-0.4V75.1z"/>
	<path id="XMLID_32_" d="M969.1,23.9h-8.5c-0.7-5.3-2.7-9.2-6.1-11.9c-3.4-2.7-7.5-4-12.3-4c-2.8,0-5.4,0.5-7.8,1.5
		c-2.4,1-4.5,2.4-6.4,4.4c-1.9,2-3.4,4.6-4.5,7.9c-1.1,3.3-1.6,7.1-1.6,11.4v10.2c0,8.1,1.7,14.3,5.2,18.8c3.5,4.5,8.4,6.7,14.9,6.7
		c5.5,0,10.1-1.5,13.6-4.6c3.6-3.1,5.4-7,5.4-11.9v-7.4h-19.6v-7.8h27.9v15.3c0,2-0.3,4-0.8,6.1c-0.6,2.1-1.5,4.3-2.8,6.5
		c-1.3,2.2-3,4.2-5,5.9c-2,1.7-4.6,3.1-7.8,4.2c-3.2,1.1-6.8,1.7-10.7,1.7c-9.3,0-16.5-2.9-21.4-8.8c-4.9-5.9-7.4-14-7.4-24.5V33.1
		c0-10.3,2.6-18.4,7.9-24.2c5.3-5.8,12.3-8.7,21.1-8.7c7.9,0,14.3,2.3,18.9,6.8C966,11.6,968.6,17.2,969.1,23.9z"/>
	<path id="XMLID_34_" d="M1010.4,75.1h-8.5V9.5h-22.5V1.8h53.5v7.7h-22.5V75.1z"/>
	<path id="XMLID_36_" d="M1100.9,75.1h-8.5V40.9h-37.9v34.2h-8.5V1.8h8.5v31.4h37.9V1.8h8.5V75.1z"/>
</g>
</svg>
