<?xml version="1.0" encoding="utf-8"?>
<!-- Generator: Adobe Illustrator 16.0.0, SVG Export Plug-In . SVG Version: 6.00 Build 0)  -->
<!DOCTYPE svg PUBLIC "-//W3C//DTD SVG 1.1//EN" "http://www.w3.org/Graphics/SVG/1.1/DTD/svg11.dtd">
<svg version="1.1" id="Layer_1" xmlns="http://www.w3.org/2000/svg" xmlns:xlink="http://www.w3.org/1999/xlink" x="0px" y="0px"
	 width="75px" height="37.875px" viewBox="0 0 75 37.875" enable-background="new 0 0 75 37.875" xml:space="preserve">
<g display="none">
	<path display="inline" fill="#3B5999" d="M75,0L3,0.001c-1.657,0-3,1.343-3,3v31.875c0,1.657,1.343,3,3,3l72-0.001V0z"/>
	<path display="inline" fill="#FFFFFF" d="M41.664,15.78h-2.836v-1.86c0-0.699,0.463-0.862,0.789-0.862c0.324,0,2.002,0,2.002,0
		V9.986l-2.758-0.011c-3.06,0-3.756,2.291-3.756,3.757v2.048h-1.77v3.165h1.77c0,4.062,0,8.955,0,8.955h3.723c0,0,0-4.942,0-8.955
		h2.512L41.664,15.78z"/>
</g>
<g display="none">
	<rect display="inline" fill="#1DA1F2" width="75" height="37.875"/>
	<path display="inline" fill="#FFFFFF" d="M48.689,11.997c-0.822,0.366-1.709,0.612-2.637,0.723c0.947-0.568,1.676-1.467,2.018-2.54
		c-0.887,0.526-1.869,0.909-2.914,1.115c-0.838-0.892-2.031-1.45-3.352-1.45c-2.535,0-4.591,2.056-4.591,4.591
		c0,0.359,0.04,0.709,0.119,1.046c-3.816-0.192-7.199-2.02-9.464-4.797c-0.396,0.678-0.621,1.467-0.621,2.309
		c0,1.593,0.81,2.999,2.042,3.821c-0.752-0.024-1.461-0.23-2.08-0.574c0,0.019,0,0.039,0,0.058c0,2.224,1.582,4.081,3.683,4.502
		c-0.385,0.104-0.791,0.16-1.209,0.16c-0.297,0-0.584-0.029-0.864-0.082c0.584,1.824,2.28,3.152,4.288,3.188
		c-1.571,1.232-3.55,1.967-5.701,1.967c-0.371,0-0.736-0.021-1.096-0.064c2.032,1.303,4.445,2.063,7.038,2.063
		c8.445,0,13.064-6.996,13.064-13.063c0-0.199-0.004-0.397-0.014-0.595C47.295,13.727,48.074,12.917,48.689,11.997z"/>
</g>
<g>
	<rect fill="#125687" width="75" height="37.875"/>
	<path fill="#FFFFFF" d="M42.995,9.98h-10.99c-1.909,0-3.463,1.553-3.463,3.463V17.1v7.334c0,1.908,1.554,3.461,3.463,3.461h10.99
		c1.909,0,3.462-1.553,3.462-3.461V17.1v-3.657C46.456,11.533,44.904,9.98,42.995,9.98z M43.988,12.045l0.396-0.001v0.394v2.643
		l-3.026,0.01l-0.011-3.035L43.988,12.045z M34.942,17.1c0.574-0.794,1.506-1.314,2.558-1.314s1.983,0.521,2.556,1.314
		c0.374,0.518,0.598,1.152,0.598,1.838c0,1.738-1.416,3.152-3.154,3.152s-3.152-1.414-3.152-3.152
		C34.347,18.252,34.569,17.617,34.942,17.1z M44.712,24.434c0,0.947-0.771,1.717-1.717,1.717h-10.99
		c-0.947,0-1.717-0.77-1.717-1.717V17.1h2.674c-0.23,0.568-0.36,1.188-0.36,1.838c0,2.701,2.196,4.898,4.898,4.898
		c2.7,0,4.898-2.197,4.898-4.898c0-0.649-0.131-1.27-0.361-1.838h2.675V24.434z"/>
</g>
</svg>
