<?xml version="1.0" encoding="utf-8"?>
<!-- Generator: Adobe Illustrator 16.0.0, SVG Export Plug-In . SVG Version: 6.00 Build 0)  -->
<!DOCTYPE svg PUBLIC "-//W3C//DTD SVG 1.1//EN" "http://www.w3.org/Graphics/SVG/1.1/DTD/svg11.dtd">
<svg version="1.1" id="Layer_1" xmlns="http://www.w3.org/2000/svg" xmlns:xlink="http://www.w3.org/1999/xlink" x="0px" y="0px"
	 width="75px" height="37.875px" viewBox="0 0 75 37.875" enable-background="new 0 0 75 37.875" xml:space="preserve">
<g>
	<path fill="#3B5999" d="M75,0L3,0.001c-1.657,0-3,1.343-3,3v31.875c0,1.657,1.343,3,3,3l72-0.001V0z"/>
	<path fill="#FFFFFF" d="M41.664,15.78h-2.836v-1.86c0-0.699,0.463-0.862,0.789-0.862c0.324,0,2.002,0,2.002,0V9.986l-2.758-0.011
		c-3.06,0-3.756,2.291-3.756,3.757v2.048h-1.77v3.165h1.77c0,4.062,0,8.955,0,8.955h3.723c0,0,0-4.942,0-8.955h2.512L41.664,15.78z"
		/>
</g>
</svg>
