<?xml version="1.0" ?><svg height="400px" version="1.1" viewBox="0 0 400 400" width="400px" xmlns="http://www.w3.org/2000/svg" xmlns:xlink="http://www.w3.org/1999/xlink"><title/><desc/><defs><path d="M180.088524,171.365701 C226.18668,182.948701 261,235.689144 261,299 L61,299 C61,235.689144 95.8133205,182.948701 141.911476,171.365701 C112.529273,163.056483 91,136.042457 91,104 C91,65.3400675 122.340068,34 161,34 C199.659932,34 231,65.3400675 231,104 C231,136.042457 209.470727,163.056483 180.08855,171.365708 L180.088524,171.365701 Z" id="path-1"/><filter filterUnits="objectBoundingBox" height="200%" id="filter-2" width="200%" x="-50%" y="-50%"><feOffset dx="0" dy="4" in="SourceAlpha" result="shadowOffsetOuter1"/><feGaussianBlur in="shadowOffsetOuter1" result="shadowBlurOuter1" stdDeviation="2"/><feColorMatrix in="shadowBlurOuter1" type="matrix" values="0 0 0 0 0   0 0 0 0 0   0 0 0 0 0  0 0 0 0.5 0"/></filter><path d="M249.088524,211.365701 C295.18668,222.948701 330,275.689144 330,339 L130,339 C130,275.689144 164.81332,222.948701 210.911476,211.365701 C181.529273,203.056483 160,176.042457 160,144 C160,105.340068 191.340068,74 230,74 C268.659932,74 300,105.340068 300,144 C300,176.042457 278.470727,203.056483 249.08855,211.365708 L249.088524,211.365701 Z" id="path-3"/><filter filterUnits="objectBoundingBox" height="200%" id="filter-4" width="200%" x="-50%" y="-50%"><feOffset dx="0" dy="4" in="SourceAlpha" result="shadowOffsetOuter1"/><feGaussianBlur in="shadowOffsetOuter1" result="shadowBlurOuter1" stdDeviation="2"/><feColorMatrix in="shadowBlurOuter1" type="matrix" values="0 0 0 0 0   0 0 0 0 0   0 0 0 0 0  0 0 0 0.5 0"/></filter></defs><g fill="none" fill-rule="evenodd" id="Page-1" stroke="none" stroke-width="1"><g id="humans"><path d="M200,400 C310.45695,400 400,310.45695 400,200 C400,89.54305 310.45695,0 200,0 C89.54305,0 0,89.54305 0,200 C0,310.45695 89.54305,400 200,400 Z" fill="none" id="Background-Copy-2"/><g id="Oval-159"><use fill="black" fill-opacity="1" filter="url(#filter-2)" xlink:href="#path-1"/><use fill="#666" fill-rule="evenodd" xlink:href="#path-1"/></g><g id="Oval-159"><use fill="black" fill-opacity="1" filter="url(#filter-4)" xlink:href="#path-3"/><use fill="#fff" fill-rule="evenodd" xlink:href="#path-3"/></g></g></g></svg>