<?xml version="1.0" encoding="utf-8"?>
<!-- Generator: Adobe Illustrator 16.0.0, SVG Export Plug-In . SVG Version: 6.00 Build 0)  -->
<!DOCTYPE svg PUBLIC "-//W3C//DTD SVG 1.1//EN" "http://www.w3.org/Graphics/SVG/1.1/DTD/svg11.dtd">
<svg version="1.1" id="Layer_1" xmlns="http://www.w3.org/2000/svg" xmlns:xlink="http://www.w3.org/1999/xlink" x="0px" y="0px"
	 width="491.986px" height="480px" viewBox="0 0 491.986 480" enable-background="new 0 0 491.986 480" xml:space="preserve">
<g>
	<path fill="#BD10E0" d="M461.986,29.096c0,16.009-12.592,28.904-28.603,28.904h-96.912c-16.01,0-29.485-12.895-29.485-28.904
		v-0.108C306.986,12.978,320.462,0,336.472,0h96.912c16.011,0,28.603,12.978,28.603,28.988V29.096z"/>
	<path fill="#BD10E0" d="M265.799,194.113l15.111,34.044c1.519,26.574-71.371,21.258-71.371,21.258
		c-6.811,20.204-11.768,42.139-11.768,42.139c-50.871-7.972-58.843-41.76-58.843-41.76c-45.556,34.167-74.028-26.193-74.028-26.193
		c41.38-8.732,38.075-31.788,38.075-31.788c-15.468-3.448-6.595-2.601-12.906-8.717C36.52,209.528,0,262.217,0,322.912
		c0,87.207,75.382,157.905,168.371,157.905c92.987,0,168.37-70.698,168.37-157.905C336.74,269.754,330.409,213.977,265.799,194.113z
		"/>
	<path fill="#BD10E0" d="M218.65,197.597c0,0,44.417-5.694,41.569-20.5c0,0-18.791,0-34.735-9.111
		c-14.052-8.03-36.495,2.517-36.169,13.319c-2.106-8.399-3.57-27.448,19.655-42.931c0,0-46.125-14.236-36.444,46.125
		c0,0-20.5-19.361-37.014-16.514c0,0-30.75,0.569-31.889-14.806c0,0-14.806,32.458,29.042,42.708c0,0,0,23.347-35.875,29.042
		c0,0,27.333,48.403,64.347-10.25c0,0-12.528,41.569,24.486,59.792c0,0-0.569-49.542,4.556-65.486c0,0,14.236,54.097,70.041,23.347
		C260.22,232.333,215.234,215.25,218.65,197.597z"/>
	<path fill="#BD10E0" d="M454.602,77.847c-0.881-0.119-1.742-0.207-2.639-0.274c-0.124-0.009-0.232-0.243-0.355-0.25
		c-0.924-0.062-1.84-0.322-2.779-0.322H316.717c-0.939,0-1.87,0.26-2.795,0.322c-0.123,0.008-0.245,0.13-0.369,0.139
		c-0.896,0.067-1.787,0.211-2.669,0.33l-33.378,93.284c48.531,32.572,80.164,85.892,80.164,146.129
		c0,56.986-28.313,108.021-72.458,140.915C293.104,466.5,304.296,472,316.717,472h132.111c23.901,0,43.158-19.878,43.158-43.778
		v-245.76L454.602,77.847z"/>
</g>
</svg>
