<?xml version="1.0" encoding="utf-8"?>
<!-- Generator: Adobe Illustrator 16.0.0, SVG Export Plug-In . SVG Version: 6.00 Build 0)  -->
<!DOCTYPE svg PUBLIC "-//W3C//DTD SVG 1.1//EN" "http://www.w3.org/Graphics/SVG/1.1/DTD/svg11.dtd">
<svg version="1.1" id="Layer_1" xmlns="http://www.w3.org/2000/svg" xmlns:xlink="http://www.w3.org/1999/xlink" x="0px" y="0px"
	 width="561px" height="458.582px" viewBox="0 0 561 458.582" enable-background="new 0 0 561 458.582" xml:space="preserve">
<path fill="#4DD964" d="M217.511,0h-168C21.897,0,0,23.089,0,50.703v334C0,412.317,21.897,434,49.511,434h158h4
	c22.009,0,42.066,9.717,55.946,24.668c0.191-1.371,0.543-2.416,0.543-3.84v-70.125v-28.125V50.703C268,23.089,245.125,0,217.511,0z
	 M147,233.582v134.279c0,8.008-6.492,14.5-14.5,14.5s-14.5-6.492-14.5-14.5V232.69c-21-10.155-36.15-40.261-36.15-75.829
	c0-43.907,23.028-79.5,51.471-79.5s51.621,35.593,51.621,79.5C184.942,193.555,169,224.424,147,233.582z"/>
<path fill="#4DD964" d="M510.512,0h-168C314.896,0,293,22.918,293,50.532v305.875v28.125v70.125c0,1.424-0.139,2.555,0.055,3.925
	C306.934,443.632,326.502,434,348.512,434h4h158C538.125,434,561,412.146,561,384.532v-334C561,22.918,538.125,0,510.512,0z
	 M461,334H338v-21h123V334z M461,278H338v-21h123V278z M461,222H338v-21h123V222z M461,166H338v-21h123V166z M461,110H338V89h123
	V110z M516,334h-33v-21h33V334z M516,278h-33v-21h33V278z M516,222h-33v-21h33V222z M516,166h-33v-21h33V166z M516,110h-33V89h33
	V110z"/>
</svg>
