<svg width="400" height="400" xmlns="http://www.w3.org/2000/svg">
 <!-- Created with Method Draw - http://github.com/duopixel/Method-Draw/ -->

 <g>
  <title>background</title>
  <rect fill="#fff" id="canvas_background" height="402" width="402" y="-1" x="-1"/>
  <g display="none" overflow="visible" y="0" x="0" height="100%" width="100%" id="canvasGrid">
   <rect fill="url(#gridpattern)" stroke-width="0" y="0" x="0" height="100%" width="100%"/>
  </g>
 </g>
 <g>
  <title>Layer 1</title>
  <g stroke="null" id="svg_6">
   <path stroke="null" id="svg_5" fill="#77797A" d="m254.227473,200.006524l81.359773,-85.569409c11.918395,-12.550006 11.918395,-33.08875 0,-45.638756l-10.852925,-11.403173c-11.930784,-12.563038 -31.456139,-12.563038 -43.374534,0l-81.359773,85.569409l-81.359773,-85.582441c-11.918395,-12.550006 -31.44375,-12.550006 -43.374534,0l-10.852925,11.403173c-11.918395,12.550006 -11.918395,33.08875 0,45.638756l81.347384,85.569409l-81.347384,85.582441c-11.918395,12.550006 -11.918395,33.075717 0,45.625724l10.852925,11.416205c11.930784,12.550006 31.456139,12.550006 43.374534,0l81.359773,-85.569409l81.359773,85.569409c11.918395,12.550006 31.44375,12.550006 43.374534,0l10.852925,-11.416205c11.918395,-12.550006 11.918395,-33.075717 0,-45.625724l-81.359773,-85.569409z"/>
  </g>
 </g>
</svg>