<?xml version="1.0" encoding="utf-8"?>
<!-- Generator: Adobe Illustrator 16.0.0, SVG Export Plug-In . SVG Version: 6.00 Build 0)  -->
<!DOCTYPE svg PUBLIC "-//W3C//DTD SVG 1.1//EN" "http://www.w3.org/Graphics/SVG/1.1/DTD/svg11.dtd">
<svg version="1.1" id="Layer_1" xmlns="http://www.w3.org/2000/svg" xmlns:xlink="http://www.w3.org/1999/xlink" x="0px" y="0px"
	 width="452px" height="429px" viewBox="0 0 452 429" enable-background="new 0 0 452 429" xml:space="preserve">
<g>
	<path fill="#FFCB00" d="M330,70h-28c-6.627,0-12,5.073-12,11.7V188H161V81.7c0-6.627-5.373-11.7-12-11.7h-28
		c-6.627,0-12,5.073-12,11.7v266c0,6.627,5.373,12.3,12,12.3h28c6.627,0,12-5.673,12-12.3V242h129v105.7c0,6.627,5.373,12.3,12,12.3
		h28c6.627,0,12-5.673,12-12.3v-266C342,75.073,336.627,70,330,70z"/>
	<path fill="#FFCB00" d="M394,107h-32c-0.338,0-0.67-0.277-1-0.25v215.899c0.33,0.027,0.662,0.351,1,0.351h32
		c6.627,0,12-5.673,12-12.3v-192C406,112.072,400.627,107,394,107z"/>
	<path fill="#FFCB00" d="M58,107h32c0.338,0,0.67-0.277,1-0.25v215.899c-0.33,0.027-0.662,0.351-1,0.351H58
		c-6.627,0-12-5.673-12-12.3v-192C46,112.072,51.373,107,58,107z"/>
	<path fill="#FFCB00" d="M440,188h-16v54h16c6.627,0,12-5.673,12-12.3v-30C452,193.073,446.627,188,440,188z"/>
	<path fill="#FFCB00" d="M12,188h16v54H12c-6.627,0-12-5.673-12-12.3v-30C0,193.073,5.373,188,12,188z"/>
</g>
</svg>
