<svg width="400" height="400" xmlns="http://www.w3.org/2000/svg">
 <!-- Created with Method Draw - http://github.com/duopixel/Method-Draw/ -->

 <g>
  <title>background</title>
  <rect fill="#fff" id="canvas_background" height="402" width="402" y="-1" x="-1"/>
  <g display="none" overflow="visible" y="0" x="0" height="100%" width="100%" id="canvasGrid">
   <rect fill="url(#gridpattern)" stroke-width="0" y="0" x="0" height="100%" width="100%"/>
  </g>
 </g>
 <g>
  <title>Layer 1</title>
  <g stroke="null" id="svg_6">
   <path stroke="null" id="svg_4" fill="none" d="m1.814827,0.814797l398.370326,0l0,399.370384l-398.370326,0l0,-399.370384z"/>
   <path stroke="null" id="svg_5" fill="#77797A" d="m200.99999,34.095663c-91.708169,0 -165.987636,74.465936 -165.987636,166.404327s74.279467,166.404327 165.987636,166.404327s165.987636,-74.465936 165.987636,-166.404327s-74.279467,-166.404327 -165.987636,-166.404327zm-132.790109,166.404327c0,-73.550712 59.423574,-133.123461 132.790109,-133.123461c30.707713,0 58.842617,10.566675 81.333942,28.039129l-186.155134,186.622453c-17.428702,-22.547786 -27.968917,-50.75332 -27.968917,-81.53812zm132.790109,133.123461c-30.707713,0 -58.842617,-10.566675 -81.333942,-28.039129l186.155134,-186.622453c17.428702,22.547786 27.968917,50.75332 27.968917,81.53812c0,73.550712 -59.423574,133.123461 -132.790109,133.123461z"/>
  </g>
 </g>
</svg>