<?xml version="1.0" encoding="utf-8"?>
<!-- Generator: Adobe Illustrator 16.0.0, SVG Export Plug-In . SVG Version: 6.00 Build 0)  -->
<!DOCTYPE svg PUBLIC "-//W3C//DTD SVG 1.1//EN" "http://www.w3.org/Graphics/SVG/1.1/DTD/svg11.dtd">
<svg version="1.1" id="Layer_1" xmlns="http://www.w3.org/2000/svg" xmlns:xlink="http://www.w3.org/1999/xlink" x="0px" y="0px"
	 width="39.686px" height="39.686px" viewBox="0 0 39.686 39.686" enable-background="new 0 0 39.686 39.686" xml:space="preserve">
<g>
	<path fill="#57BA63" d="M39.686,36.852c0,1.564-1.27,2.834-2.834,2.834H2.834C1.27,39.686,0,38.416,0,36.852V2.835
		C0,1.27,1.27,0,2.834,0h34.018c1.564,0,2.834,1.27,2.834,2.835V36.852z"/>
	<g>
		<path fill="#FFFFFF" d="M10.92,28.834c0.248-0.744,0.482-1.443,0.716-2.141c0.234-0.691,0.442-1.393,0.709-2.074
			c0.137-0.344,0.093-0.604-0.079-0.928c-0.943-1.748-1.223-3.623-0.896-5.572c0.277-1.651,0.979-3.112,2.112-4.354
			c1.867-2.041,4.199-3.02,6.955-2.904c2.019,0.083,3.804,0.82,5.325,2.155c1.418,1.242,2.342,2.785,2.771,4.62
			c0.346,1.479,0.306,2.951-0.119,4.408c-0.539,1.846-1.572,3.367-3.108,4.525c-2.133,1.611-4.526,2.113-7.135,1.605
			c-0.784-0.152-1.533-0.432-2.238-0.814c-0.115-0.061-0.212-0.074-0.338-0.031c-1.339,0.432-2.681,0.859-4.019,1.289
			C11.373,28.684,11.168,28.75,10.92,28.834z M13.197,26.578c0.072-0.018,0.104-0.025,0.137-0.037
			c0.838-0.266,1.677-0.535,2.519-0.795c0.079-0.023,0.188-0.002,0.263,0.033c0.363,0.18,0.712,0.396,1.087,0.555
			c1.54,0.65,3.127,0.756,4.731,0.309c1.914-0.535,3.382-1.676,4.386-3.4c0.86-1.475,1.155-3.068,0.89-4.745
			c-0.339-2.134-1.433-3.811-3.243-5.001c-1.568-1.029-3.295-1.379-5.138-1.087c-1.587,0.252-2.943,0.976-4.063,2.134
			c-0.96,0.992-1.604,2.166-1.885,3.515c-0.399,1.933-0.104,3.761,0.968,5.427c0.216,0.334,0.209,0.59,0.079,0.932
			C13.665,25.117,13.445,25.834,13.197,26.578z"/>
		<path fill="#FFFFFF" d="M24.539,22.139c-0.012,0.693-0.339,1.223-1.001,1.553c-0.651,0.324-1.313,0.408-1.993,0.143
			c-0.612-0.242-1.23-0.477-1.82-0.768c-0.777-0.385-1.415-0.961-1.997-1.598c-0.645-0.705-1.191-1.49-1.641-2.328
			c-0.32-0.594-0.515-1.223-0.446-1.914c0.072-0.734,0.414-1.32,0.989-1.763c0.115-0.086,0.288-0.126,0.436-0.141
			c0.19-0.015,0.381,0.015,0.572,0.029c0.158,0.014,0.244,0.126,0.298,0.255c0.141,0.346,0.267,0.691,0.4,1.04
			c0.09,0.233,0.157,0.479,0.266,0.705c0.134,0.28,0.051,0.515-0.122,0.73c-0.147,0.184-0.303,0.36-0.472,0.519
			c-0.141,0.133-0.166,0.27-0.072,0.432c0.414,0.736,0.918,1.398,1.584,1.936c0.438,0.354,0.925,0.615,1.428,0.859
			c0.147,0.072,0.292,0.063,0.407-0.072c0.248-0.283,0.5-0.564,0.744-0.854c0.158-0.182,0.237-0.219,0.45-0.109
			c0.615,0.309,1.224,0.629,1.835,0.949C24.527,21.82,24.563,21.951,24.539,22.139z"/>
	</g>
</g>
</svg>
