<?xml version="1.0" ?><svg height="512" id="Layer_1" version="1.1" viewBox="0 0 512 512" width="512" xml:space="preserve" xmlns="http://www.w3.org/2000/svg" xmlns:cc="http://creativecommons.org/ns#" xmlns:dc="http://purl.org/dc/elements/1.1/" xmlns:inkscape="http://www.inkscape.org/namespaces/inkscape" xmlns:rdf="http://www.w3.org/1999/02/22-rdf-syntax-ns#" xmlns:sodipodi="http://sodipodi.sourceforge.net/DTD/sodipodi-0.dtd" xmlns:svg="http://www.w3.org/2000/svg" xmlns:xlink="http://www.w3.org/1999/xlink"><defs id="defs13"><linearGradient gradientTransform="translate(1635.9966,-2013.2351)" gradientUnits="userSpaceOnUse" id="linearGradient3006" x1="256.00049" x2="256.00049" xlink:href="#SVGID_1_-8" y1="512" y2="0.00048828131"/><linearGradient gradientUnits="userSpaceOnUse" id="SVGID_1_-8" x1="256.00049" x2="256.00049" y1="512" y2="0.00048828131"><stop id="stop4-8" offset="0" style="stop-color:#0c80b1;stop-opacity:1"/><stop id="stop6-2" offset="1" style="stop-color:#11a7df;stop-opacity:1"/></linearGradient><linearGradient gradientUnits="userSpaceOnUse" id="linearGradient3471" x1="256.00049" x2="256.00049" xlink:href="#SVGID_1_-8" y1="512" y2="0.00048828131"/><linearGradient gradientTransform="matrix(0,-1,-1,0,512,512)" gradientUnits="userSpaceOnUse" id="linearGradient3781" x1="-1.8544069e-006" x2="512" xlink:href="#SVGID_1_-8-1" y1="256" y2="256"/><linearGradient gradientUnits="userSpaceOnUse" id="SVGID_1_-8-1" x1="256.00049" x2="256.00049" y1="512" y2="0.00048828131"><stop id="stop4-8-7" offset="0" style="stop-color:#0c80b1;stop-opacity:1"/><stop id="stop6-2-4" offset="1" style="stop-color:#11a7df;stop-opacity:1"/></linearGradient><linearGradient gradientTransform="matrix(0,-1,-1,0,512,512)" gradientUnits="userSpaceOnUse" id="linearGradient3026" x1="-1.8544069e-006" x2="512" xlink:href="#SVGID_1_-8-1" y1="256" y2="256"/><linearGradient gradientTransform="matrix(0,-1,-1,0,1236.6102,130.16949)" gradientUnits="userSpaceOnUse" id="linearGradient3030" x1="-1.8544069e-006" x2="512" xlink:href="#SVGID_1_-8-1" y1="256" y2="256"/><linearGradient gradientUnits="userSpaceOnUse" id="linearGradient3040" x1="256.00049" x2="256.00049" xlink:href="#SVGID_1_-8" y1="512" y2="0.00048828131"/><linearGradient gradientTransform="matrix(0,-1,-1,0,511.9852,512.01324)" gradientUnits="userSpaceOnUse" id="linearGradient3042" x1="-1.8544069e-006" x2="512" xlink:href="#SVGID_1_-8-1" y1="256" y2="256"/><linearGradient gradientTransform="matrix(0.82022707,0,0,0.82022707,864.58068,136.77513)" gradientUnits="userSpaceOnUse" id="linearGradient3790" x1="-997.96606" x2="-998.34283" xlink:href="#SVGID_1_-8-1" y1="353.98837" y2="-63.276527"/><linearGradient gradientTransform="matrix(0,-1,-1,0,511.9852,512.01324)" gradientUnits="userSpaceOnUse" id="linearGradient3794" x1="-1.8544069e-006" x2="512" xlink:href="#SVGID_1_-8-1" y1="256" y2="256"/><linearGradient gradientTransform="matrix(0,-1,-1,0,511.9852,512.01324)" gradientUnits="userSpaceOnUse" id="linearGradient3798" x1="-1.8544069e-006" x2="512" xlink:href="#SVGID_1_-8-1" y1="256" y2="256"/><linearGradient gradientUnits="userSpaceOnUse" id="linearGradient3808" x1="1.5340621" x2="1.1572975" xlink:href="#SVGID_1_-8-1" y1="515.25653" y2="-0.18838234"/></defs><linearGradient gradientTransform="matrix(0,1,-1,0,512,0)" gradientUnits="userSpaceOnUse" id="SVGID_1_" spreadMethod="pad" x1="0" x2="512" y1="256" y2="256"><stop id="stop4" offset="0" style="stop-color:#00616f;stop-opacity:1"/><stop id="stop6" offset="1" style="stop-color:#284660;stop-opacity:1"/></linearGradient><path d="M 73.125 0 C 32.73606 0 0 32.76731 0 73.15625 L 0 438.875 C 0 479.26394 32.73606 512 73.125 512 L 438.84375 512 C 479.23255 512.009 512 479.26394 512 438.875 L 512 73.15625 C 512 32.75878 479.23255 -4.6259293e-018 438.84375 0 L 73.125 0 z M 336.78125 85.34375 C 361.5629 85.34375 383.94145 95.816708 399.65625 112.5625 C 419.28292 108.69888 437.72581 101.53153 454.375 91.65625 C 447.94336 111.77637 434.2873 128.64977 416.5 139.3125 C 433.92612 137.22951 450.51852 132.6037 465.96875 125.75 C 454.41782 143.0291 439.83186 158.19858 423 170.34375 C 423.16586 174.04146 423.25 177.76449 423.25 181.5 C 423.25 295.35876 336.5708 426.65625 178.09375 426.65625 C 129.43753 426.65625 84.161245 412.38531 46.03125 387.9375 C 52.771565 388.73334 59.607999 389.125 66.5625 389.125 C 106.93087 389.125 144.10647 375.36023 173.59375 352.25 C 135.89001 351.55708 104.05881 326.63484 93.09375 292.40625 C 98.355815 293.40995 103.76068 293.96875 109.3125 293.96875 C 117.16992 293.96875 124.77044 292.90709 132 290.9375 C 92.584958 283.0171 62.875 248.21249 62.875 206.46875 C 62.875 206.10547 62.89645 205.73405 62.90625 205.375 C 74.522264 211.82763 87.783113 215.709 101.90625 216.15625 C 78.78764 200.70604 63.59375 174.33002 63.59375 144.4375 C 63.59375 128.6471 67.833556 113.84969 75.25 101.125 C 117.74544 153.25214 181.23688 187.56353 252.84375 191.15625 C 251.37391 184.8506 250.625 178.25291 250.625 171.5 C 250.625 123.91887 289.20013 85.34375 336.78125 85.34375 z " id="path5" style="fill:url(#linearGradient3808);fill-opacity:1"/></svg>